<mxfile host="app.diagrams.net" modified="2024-06-17T14:49:10.869Z" agent="Mozilla/5.0 (Windows NT 10.0; Win64; x64; rv:126.0) Gecko/20100101 Firefox/126.0" etag="2aflvd1e1Q3kHul2Cj1U" version="24.5.3" type="github">
  <diagram name="Page-1" id="vFgg51eKVZZ3_Efdh5YO">
    <mxGraphModel dx="1834" dy="1232" grid="0" gridSize="10" guides="1" tooltips="1" connect="1" arrows="1" fold="1" page="0" pageScale="1" pageWidth="827" pageHeight="1169" math="0" shadow="0">
      <root>
        <mxCell id="0" />
        <mxCell id="1" parent="0" />
        <mxCell id="iIcxJYAKnOTWNrlkL90o-1" value="Memo 1" style="rounded=0;whiteSpace=wrap;html=1;" parent="1" vertex="1">
          <mxGeometry x="-302" y="-104" width="160" height="80" as="geometry" />
        </mxCell>
        <mxCell id="iIcxJYAKnOTWNrlkL90o-2" value="Memo 2" style="rounded=0;whiteSpace=wrap;html=1;" parent="1" vertex="1">
          <mxGeometry x="-302" y="13" width="160" height="80" as="geometry" />
        </mxCell>
        <mxCell id="iIcxJYAKnOTWNrlkL90o-11" style="edgeStyle=none;curved=1;rounded=0;orthogonalLoop=1;jettySize=auto;html=1;fontSize=12;startSize=8;endSize=8;" parent="1" source="iIcxJYAKnOTWNrlkL90o-3" target="iIcxJYAKnOTWNrlkL90o-4" edge="1">
          <mxGeometry relative="1" as="geometry" />
        </mxCell>
        <mxCell id="iIcxJYAKnOTWNrlkL90o-3" value="Document" style="rounded=0;whiteSpace=wrap;html=1;" parent="1" vertex="1">
          <mxGeometry x="-297" y="143" width="160" height="80" as="geometry" />
        </mxCell>
        <mxCell id="iIcxJYAKnOTWNrlkL90o-14" style="edgeStyle=none;curved=1;rounded=0;orthogonalLoop=1;jettySize=auto;html=1;fontSize=12;startSize=8;endSize=8;" parent="1" source="iIcxJYAKnOTWNrlkL90o-4" target="iIcxJYAKnOTWNrlkL90o-10" edge="1">
          <mxGeometry relative="1" as="geometry" />
        </mxCell>
        <mxCell id="iIcxJYAKnOTWNrlkL90o-15" value="Viewer parameters for document type" style="edgeLabel;html=1;align=center;verticalAlign=middle;resizable=0;points=[];fontSize=12;" parent="iIcxJYAKnOTWNrlkL90o-14" vertex="1" connectable="0">
          <mxGeometry x="0.1318" y="4" relative="1" as="geometry">
            <mxPoint as="offset" />
          </mxGeometry>
        </mxCell>
        <mxCell id="iIcxJYAKnOTWNrlkL90o-16" style="edgeStyle=none;curved=1;rounded=0;orthogonalLoop=1;jettySize=auto;html=1;entryX=0;entryY=0.5;entryDx=0;entryDy=0;fontSize=12;startSize=8;endSize=8;" parent="1" source="iIcxJYAKnOTWNrlkL90o-4" target="iIcxJYAKnOTWNrlkL90o-5" edge="1">
          <mxGeometry relative="1" as="geometry" />
        </mxCell>
        <mxCell id="iIcxJYAKnOTWNrlkL90o-17" style="edgeStyle=none;curved=1;rounded=0;orthogonalLoop=1;jettySize=auto;html=1;fontSize=12;startSize=8;endSize=8;" parent="1" source="iIcxJYAKnOTWNrlkL90o-4" target="iIcxJYAKnOTWNrlkL90o-6" edge="1">
          <mxGeometry relative="1" as="geometry" />
        </mxCell>
        <mxCell id="iIcxJYAKnOTWNrlkL90o-4" value="Viewer" style="ellipse;whiteSpace=wrap;html=1;aspect=fixed;fillColor=#FFFFFF;strokeColor=#AB667B;fontColor=#002058;fontFamily=Poppins;fontSource=https%3A%2F%2Ffonts.googleapis.com%2Fcss%3Ffamily%3DPoppins;fontSize=16;strokeWidth=3;fontStyle=0" parent="1" vertex="1">
          <mxGeometry x="1" y="8" width="80" height="80" as="geometry" />
        </mxCell>
        <mxCell id="iIcxJYAKnOTWNrlkL90o-19" style="edgeStyle=none;curved=1;rounded=0;orthogonalLoop=1;jettySize=auto;html=1;entryX=0;entryY=0.5;entryDx=0;entryDy=0;fontSize=12;startSize=8;endSize=8;" parent="1" source="iIcxJYAKnOTWNrlkL90o-5" target="iIcxJYAKnOTWNrlkL90o-8" edge="1">
          <mxGeometry relative="1" as="geometry" />
        </mxCell>
        <mxCell id="iIcxJYAKnOTWNrlkL90o-5" value="Annotation 1" style="rounded=0;whiteSpace=wrap;html=1;" parent="1" vertex="1">
          <mxGeometry x="265" y="-117" width="160" height="80" as="geometry" />
        </mxCell>
        <mxCell id="iIcxJYAKnOTWNrlkL90o-20" style="edgeStyle=none;curved=1;rounded=0;orthogonalLoop=1;jettySize=auto;html=1;entryX=0;entryY=0.5;entryDx=0;entryDy=0;fontSize=12;startSize=8;endSize=8;" parent="1" source="iIcxJYAKnOTWNrlkL90o-6" target="iIcxJYAKnOTWNrlkL90o-8" edge="1">
          <mxGeometry relative="1" as="geometry" />
        </mxCell>
        <mxCell id="iIcxJYAKnOTWNrlkL90o-6" value="Annotation 2" style="rounded=0;whiteSpace=wrap;html=1;" parent="1" vertex="1">
          <mxGeometry x="265" y="21" width="160" height="80" as="geometry" />
        </mxCell>
        <mxCell id="iIcxJYAKnOTWNrlkL90o-21" style="edgeStyle=none;curved=1;rounded=0;orthogonalLoop=1;jettySize=auto;html=1;entryX=0;entryY=0.5;entryDx=0;entryDy=0;fontSize=12;startSize=8;endSize=8;" parent="1" source="iIcxJYAKnOTWNrlkL90o-7" target="iIcxJYAKnOTWNrlkL90o-8" edge="1">
          <mxGeometry relative="1" as="geometry" />
        </mxCell>
        <mxCell id="iIcxJYAKnOTWNrlkL90o-7" value="Contenu du fichier du document" style="rounded=0;whiteSpace=wrap;html=1;" parent="1" vertex="1">
          <mxGeometry x="268" y="154" width="160" height="80" as="geometry" />
        </mxCell>
        <mxCell id="iIcxJYAKnOTWNrlkL90o-23" style="edgeStyle=none;curved=1;rounded=0;orthogonalLoop=1;jettySize=auto;html=1;fontSize=12;startSize=8;endSize=8;" parent="1" source="iIcxJYAKnOTWNrlkL90o-8" target="iIcxJYAKnOTWNrlkL90o-22" edge="1">
          <mxGeometry relative="1" as="geometry" />
        </mxCell>
        <mxCell id="iIcxJYAKnOTWNrlkL90o-8" value="API de rendering" style="ellipse;whiteSpace=wrap;html=1;aspect=fixed;fillColor=#FFFFFF;strokeColor=#AB667B;fontColor=#002058;fontFamily=Poppins;fontSource=https%3A%2F%2Ffonts.googleapis.com%2Fcss%3Ffamily%3DPoppins;fontSize=16;strokeWidth=3;fontStyle=0" parent="1" vertex="1">
          <mxGeometry x="688" y="15" width="80" height="80" as="geometry" />
        </mxCell>
        <mxCell id="iIcxJYAKnOTWNrlkL90o-10" value="Type de document" style="rounded=0;whiteSpace=wrap;html=1;" parent="1" vertex="1">
          <mxGeometry x="-39" y="346" width="160" height="80" as="geometry" />
        </mxCell>
        <mxCell id="iIcxJYAKnOTWNrlkL90o-12" style="edgeStyle=none;curved=1;rounded=0;orthogonalLoop=1;jettySize=auto;html=1;entryX=0.013;entryY=0.588;entryDx=0;entryDy=0;entryPerimeter=0;fontSize=12;startSize=8;endSize=8;" parent="1" source="iIcxJYAKnOTWNrlkL90o-2" target="iIcxJYAKnOTWNrlkL90o-4" edge="1">
          <mxGeometry relative="1" as="geometry" />
        </mxCell>
        <mxCell id="iIcxJYAKnOTWNrlkL90o-13" style="edgeStyle=none;curved=1;rounded=0;orthogonalLoop=1;jettySize=auto;html=1;entryX=0.05;entryY=0.325;entryDx=0;entryDy=0;entryPerimeter=0;fontSize=12;startSize=8;endSize=8;" parent="1" source="iIcxJYAKnOTWNrlkL90o-1" target="iIcxJYAKnOTWNrlkL90o-4" edge="1">
          <mxGeometry relative="1" as="geometry" />
        </mxCell>
        <mxCell id="iIcxJYAKnOTWNrlkL90o-18" style="edgeStyle=none;curved=1;rounded=0;orthogonalLoop=1;jettySize=auto;html=1;entryX=0.019;entryY=0.638;entryDx=0;entryDy=0;entryPerimeter=0;fontSize=12;startSize=8;endSize=8;" parent="1" source="iIcxJYAKnOTWNrlkL90o-4" target="iIcxJYAKnOTWNrlkL90o-7" edge="1">
          <mxGeometry relative="1" as="geometry" />
        </mxCell>
        <mxCell id="iIcxJYAKnOTWNrlkL90o-22" value="PDF avec mÃ©mos repris sous forme d&#39;annotation" style="rounded=0;whiteSpace=wrap;html=1;" parent="1" vertex="1">
          <mxGeometry x="943" y="23" width="160" height="80" as="geometry" />
        </mxCell>
      </root>
    </mxGraphModel>
  </diagram>
</mxfile>
